<?xml version="1.0" encoding="utf-8"?>
<!-- Generator: Adobe Illustrator 27.5.0, SVG Export Plug-In . SVG Version: 6.00 Build 0)  -->
<svg version="1.1" id="Capa_1" xmlns="http://www.w3.org/2000/svg" xmlns:xlink="http://www.w3.org/1999/xlink" x="0px" y="0px"
	 viewBox="0 0 841.9 595.3" style="enable-background:new 0 0 841.9 595.3;" xml:space="preserve">
<style type="text/css">
	.st0{fill:#002819;}
</style>
<g>
	<g>
		<path class="st0" d="M659.7,243.4c0-7,5.2-12.1,12.2-12.1c7,0,12.2,5.1,12.2,12.1c0,7-5.2,12.1-12.2,12.1
			C664.9,255.5,659.7,250.3,659.7,243.4z M681.3,243.4c0-5.7-3.9-9.7-9.4-9.7c-5.6,0-9.4,4-9.4,9.7s3.9,9.7,9.4,9.7
			C677.5,253.1,681.3,249.1,681.3,243.4z M667.5,236.9h4.4c3.2,0,5,1.6,5,3.8c0,1.3-0.8,2.4-2.5,3.4l3.2,5.3h-2.9l-3.6-6l1.6-0.8
			c1.1-0.6,1.5-1.1,1.5-1.9c0-1.1-0.9-1.6-2.4-1.6H670v10.2h-2.6V236.9z"/>
	</g>
	<g>
		<path class="st0" d="M489.9,232.2h26.2V364h-26.2V232.2z"/>
		<path class="st0" d="M533.6,232.2h26.2V364h-26.2V232.2z"/>
		<polygon class="st0" points="318,232.2 290.1,232.2 236.4,364 264.5,364 272.2,344.4 315.7,336.7 306.8,314 282.4,318.2 
			303.9,262.8 319.8,303.5 319.8,303.5 341,357.6 341,357.6 343.5,364 371.7,364 		"/>
		<polygon class="st0" points="403.8,302.8 403.8,256.8 403.8,232.2 377.6,232.2 377.6,364 403.8,364 403.8,343.4 403.8,327.7 		"/>
		<path class="st0" d="M428.4,232.2H417v24.6h11.7c14.8,0,23.3,7.1,23.3,18.9c0,10.8-7.9,18.9-23.1,22l-11.9,2.4v25l11.7-2.3
			c34.3-7,49.9-24.7,49.9-48.2C478.6,248.9,458.8,232.2,428.4,232.2z"/>
		<polygon class="st0" points="184.4,302.8 184.4,302.8 184.4,256.8 184.4,256.8 184.4,232.2 158.2,232.2 158.2,364 184.4,364 
			184.4,327.7 184.4,327.7 		"/>
		<path class="st0" d="M208.9,232.2h-11.3v24.6h11.7c14.8,0,23.3,7.1,23.3,18.9c0,10.8-7.9,18.9-23.1,22l-11.9,2.4v25l11.7-2.3
			c34.3-7,49.9-24.7,49.9-48.2C259.2,248.9,239.4,232.2,208.9,232.2z"/>
		<rect x="533.6" y="232.2" class="st0" width="26.2" height="131.8"/>
		<path class="st0" d="M614.3,297.6c31.3-22.9,33.7-65.3,33.7-65.3h-26.2c0,0-1,34.1-27.1,49.2c0,0-5.5,3.4-10.1,5.4
			c-4.6,2.1-13.1,5.1-13.1,5.1v25.1l19.2-7.9l31.5,54.9h29.5L614.3,297.6z"/>
	</g>
</g>
</svg>
